<?xml version="1.0" encoding="UTF-8" standalone="no"?>
<!-- Created with Inkscape (http://www.inkscape.org/) -->

<svg
        xmlns:dc="http://purl.org/dc/elements/1.1/"
        xmlns:cc="http://creativecommons.org/ns#"
        xmlns:rdf="http://www.w3.org/1999/02/22-rdf-syntax-ns#"
        xmlns:sodipodi="http://sodipodi.sourceforge.net/DTD/sodipodi-0.dtd"
        xmlns:inkscape="http://www.inkscape.org/namespaces/inkscape"
        xmlns="http://www.w3.org/2000/svg"
        width="50mm"
        height="50mm"
        viewBox="0 0 50 50"
        version="1.1"
        id="svg8"
        inkscape:version="0.92.3 (2405546, 2018-03-11)"
        sodipodi:docname="fav.svg">
    <defs
            id="defs2">
        <clipPath
                clipPathUnits="userSpaceOnUse"
                id="clipPath831">
            <g
                    inkscape:label="Clip"
                    id="use833">
                <flowRoot
                        transform="matrix(1.4579222,0,0,1.4579222,-58.733951,182.75509)"
                        style="font-style:normal;font-weight:normal;font-size:40px;line-height:1.25;font-family:sans-serif;letter-spacing:0px;word-spacing:0px;fill:#000000;fill-opacity:1;stroke:none"
                        id="flowRoot846"
                        xml:space="preserve"><flowRegion
             id="flowRegion842"><rect
               y="40.483955"
               x="44.446712"
               height="103.54063"
               width="123.74369"
               id="rect840" /></flowRegion>
                    <flowPara
                            style="font-style:normal;font-variant:normal;font-weight:normal;font-stretch:normal;font-family:'Segoe Script';-inkscape-font-specification:'Segoe Script'"
                            id="flowPara844">?</flowPara></flowRoot>
            </g>
        </clipPath>
    </defs>
    <sodipodi:namedview
            id="base"
            pagecolor="#ffffff"
            bordercolor="#666666"
            borderopacity="1.0"
            inkscape:pageopacity="0.0"
            inkscape:pageshadow="2"
            inkscape:zoom="1.979899"
            inkscape:cx="113.54636"
            inkscape:cy="76.073542"
            inkscape:document-units="mm"
            inkscape:current-layer="flowRoot815"
            showgrid="false"
            inkscape:pagecheckerboard="true"
            inkscape:window-width="1366"
            inkscape:window-height="745"
            inkscape:window-x="-8"
            inkscape:window-y="-8"
            inkscape:window-maximized="1"/>
    <metadata
            id="metadata5">
        <rdf:RDF>
            <cc:Work
                    rdf:about="">
                <dc:format>image/svg+xml</dc:format>
                <dc:type
                        rdf:resource="http://purl.org/dc/dcmitype/StillImage"/>
                <dc:title></dc:title>
            </cc:Work>
        </rdf:RDF>
    </metadata>
    <g
            inkscape:label="Ebene 1"
            inkscape:groupmode="layer"
            id="layer1"
            transform="translate(0,-247)">
        <g
                aria-label="?"
                transform="matrix(1.4579222,0,0,1.4579222,-58.733951,182.75509)"
                style="font-style:normal;font-weight:normal;font-size:40px;line-height:1.25;font-family:sans-serif;letter-spacing:0px;word-spacing:0px;fill:#000000;fill-opacity:1;stroke:none"
                id="flowRoot815">
            <path
                    d="m 65.877684,52.832575 q 0,1.289062 -0.214843,2.324218 -0.214844,1.035157 -0.605469,1.855469 -0.390625,0.820313 -0.976563,1.464844 -0.566406,0.625 -1.289062,1.09375 -1.445313,0.9375 -3.515625,1.640625 -1.054688,0.351562 -2.070313,0.703125 -0.996093,0.332031 -2.011718,0.664062 -0.625,1.640625 -1.074219,3.730469 -0.214844,0.957031 -0.859375,1.289063 -0.625,0.3125 -1.796875,0.3125 -0.175781,0 -0.3125,-0.839844 -0.117188,-0.839844 -0.117188,-1.113281 0,-0.800782 0.273438,-1.5625 0.253906,-0.722657 0.820312,-1.894532 0.273438,-0.566406 0.449219,-0.898437 0.175781,-0.351563 0.214844,-0.488281 1.054687,-0.898438 2.226562,-1.464844 1.132813,-0.546875 3.144532,-1.289063 0.996093,-0.371093 1.679687,-0.625 0.683594,-0.273437 1.074219,-0.46875 0.429687,-0.214843 0.78125,-0.625 0.371094,-0.410156 0.625,-0.917968 0.273437,-0.527344 0.410156,-1.09375 0.136719,-0.566407 0.136719,-1.074219 0,-0.683594 -0.253906,-1.679688 -0.234375,-1.015625 -0.46875,-1.523437 -0.175782,-0.410156 -0.585938,-0.683594 -0.390625,-0.292969 -0.898437,-0.46875 -0.488282,-0.195312 -1.035157,-0.273437 -0.527343,-0.09766 -0.957031,-0.09766 -1.523437,0 -2.460937,0.253907 -0.976563,0.234375 -1.816407,1.113281 -0.253906,0.253906 -0.351562,0.742187 -0.09766,0.46875 -0.273438,0.703125 -0.15625,0.234375 -0.976562,0.507813 -0.585938,0.117187 -1.113281,0.117187 -1.09375,0 -1.09375,-1.191406 0,-1.035156 1.113281,-2.246094 1.171875,-1.269531 2.65625,-2.089843 1.523437,-0.878907 2.519531,-0.878907 0.234375,0 0.703125,-0.01953 0.488281,-0.01953 0.996094,-0.03906 0.507812,-0.01953 0.976562,-0.03906 0.488282,-0.01953 0.722657,-0.01953 0.46875,0 1.269531,0.234375 0.800781,0.234375 1.132812,0.488281 1.054688,0.703125 1.679688,1.328125 0.625,0.605469 0.957031,1.308594 0.332031,0.703125 0.429688,1.601562 0.09766,0.878907 0.136718,2.128907 z M 53.983153,73.945856 q 0,0.644531 -0.351562,0.996094 -1.484375,1.484375 -2.910157,1.484375 -0.449218,0 -0.859375,-0.15625 -0.390625,-0.136719 -0.703125,-0.410157 -0.3125,-0.253906 -0.507812,-0.644531 -0.175781,-0.390625 -0.175781,-0.859375 0,-0.742187 1.269531,-1.5625 0.253906,-0.195312 0.410156,-0.332031 0.15625,-0.136719 0.292969,-0.214844 0.15625,-0.07813 0.332031,-0.09766 0.175781,-0.03906 0.488281,-0.03906 0.09766,0 0.273438,0.07813 0.175781,0.07813 0.351562,0.175782 0.195313,0.09766 0.390625,0.234375 0.195313,0.117187 0.3125,0.195312 1.386719,0 1.386719,1.152344 z"
                    style="font-style:normal;font-variant:normal;font-weight:normal;font-stretch:normal;font-family:'Segoe Script';-inkscape-font-specification:'Segoe Script'"
                    id="path854"
                    inkscape:connector-curvature="0"/>
        </g>
    </g>
</svg>
